<svg xmlns="http://www.w3.org/2000/svg" viewBox="0 0 1000 170.24"><g id="Layer_2" data-name="Layer 2"><g id="Layer_1-2" data-name="Layer 1"><rect x="665.21" y="1.73" width="11.27" height="166.13" rx="1.47" style="fill:#fff"/><path d="M747.67,126.87a2.49,2.49,0,0,1-.74-1.83l.25-1.1L776.53,45a4.43,4.43,0,0,1,4.41-3h13.45a4.43,4.43,0,0,1,4.41,3l29.35,78.9.24,1.1a2.39,2.39,0,0,1-.79,1.83,2.55,2.55,0,0,1-1.77.74H814.94a3.55,3.55,0,0,1-3.55-2.33l-5.62-14.8H769.56l-5.62,14.8a3.56,3.56,0,0,1-3.55,2.33H749.5A2.49,2.49,0,0,1,747.67,126.87Zm26.17-30.58h27.65L787.66,58.62Z" style="fill:#fff"/><path d="M845.88,123.94,831.45,45.53l-.12-1A2.5,2.5,0,0,1,833.9,42h11a3.89,3.89,0,0,1,2.32.55,2.93,2.93,0,0,1,1,1.89l10.15,55L869.25,64c.81-2,2.16-3,4-3H880a3.61,3.61,0,0,1,2.57.91A4.77,4.77,0,0,1,883.92,64l11,35.47,10-55c.25-1.63,1.39-2.44,3.43-2.44h11a2.35,2.35,0,0,1,1.72.73,2.48,2.48,0,0,1,.73,1.83,3.22,3.22,0,0,1-.12,1l-14.43,78.41a4.19,4.19,0,0,1-1.41,2.69,4.51,4.51,0,0,1-3,1h-8.31a4.27,4.27,0,0,1-2.82-.92,4.51,4.51,0,0,1-1.47-2.14L876.59,83.94l-13.7,40.61a4.09,4.09,0,0,1-4.28,3.06h-8.32C847.92,127.61,846.45,126.38,845.88,123.94Z" style="fill:#fff"/><path d="M946.3,125.53q-7.83-3.3-11.86-8.69a20.48,20.48,0,0,1-4.28-11.74,2.54,2.54,0,0,1,.73-1.77,2.4,2.4,0,0,1,1.84-.8h11.13a3.76,3.76,0,0,1,2.2.61,6.5,6.5,0,0,1,1.59,1.72,12.53,12.53,0,0,0,5.56,7q4.35,2.81,11.93,2.81,8.57,0,12.9-2.87a9,9,0,0,0,4.35-7.89,7.52,7.52,0,0,0-2.2-5.51,18.52,18.52,0,0,0-6.67-3.85q-4.47-1.65-13.27-4-14.43-3.42-21.16-9.05t-6.73-16.14a21.46,21.46,0,0,1,3.91-12.66,26,26,0,0,1,11.2-8.75,42,42,0,0,1,16.94-3.18A40.35,40.35,0,0,1,982,44.31a29,29,0,0,1,11.25,8.87,19.65,19.65,0,0,1,4.1,10.58,2.59,2.59,0,0,1-.73,1.77,2.42,2.42,0,0,1-1.84.8H983.12a3.66,3.66,0,0,1-3.67-2.2q-.62-3.91-4.77-6.55A18.88,18.88,0,0,0,964.41,55q-6.74,0-10.58,2.57A8.41,8.41,0,0,0,950,65a8,8,0,0,0,2,5.51,16,16,0,0,0,6.12,3.85,111.73,111.73,0,0,0,12.1,3.73,84.83,84.83,0,0,1,17.31,5.5,22.59,22.59,0,0,1,9.48,7.71q3.06,4.65,3.06,11.86a22.34,22.34,0,0,1-4.34,13.76,27,27,0,0,1-12.23,8.87,50.4,50.4,0,0,1-18.29,3.06Q954.13,128.83,946.3,125.53Z" style="fill:#fff"/><path d="M73.76,44A18.7,18.7,0,0,0,84.15,26.79q0-10.89-7.09-17.19T55.65,3.3H20.18A2.79,2.79,0,0,0,18,4.16a3.09,3.09,0,0,0-.79,2.2V38.41H1.83A1.82,1.82,0,0,0,0,40.23V49.3a1.83,1.83,0,0,0,1.83,1.83H17.25V86a2.9,2.9,0,0,0,2.93,2.93H56.76q13.82,0,21.52-7T86,63.6A21.58,21.58,0,0,0,73.76,44ZM34.49,16.39h19q6.36,0,9.67,2.81a9.89,9.89,0,0,1,3.3,8,10.54,10.54,0,0,1-3.36,8.2q-3.37,3.06-9.61,3.06h-19Zm30.09,56q-3.54,3.48-9.9,3.49H34.49V51.13H54.68c4.15,0,7.44,1.16,9.84,3.48a11.8,11.8,0,0,1,3.61,8.87A11.88,11.88,0,0,1,64.58,72.35Z" style="fill:#fff"/><path d="M102.26,14.92h11.25a3,3,0,0,0,2.14-.85,2.76,2.76,0,0,0,.92-2.08V3.06A2.94,2.94,0,0,0,113.51,0H102.26a2.83,2.83,0,0,0-2.08.86,3,3,0,0,0-.86,2.2V12a2.92,2.92,0,0,0,2.94,2.93Z" style="fill:#fff"/><path d="M115.22,88.07a2.85,2.85,0,0,0,.86-2.08V28.25a2.94,2.94,0,0,0-2.94-2.93H102.75a2.93,2.93,0,0,0-2.08.79,2.77,2.77,0,0,0-.86,2.14V86a2.92,2.92,0,0,0,2.94,2.93h10.39A2.82,2.82,0,0,0,115.22,88.07Z" style="fill:#fff"/><path d="M171.12,75.35h-8.56c-2.78,0-4.77-.9-6-2.7s-1.83-4.44-1.83-8V38.41H170A2.92,2.92,0,0,0,173,35.47V28.25a2.81,2.81,0,0,0-.85-2.07,2.85,2.85,0,0,0-2.08-.86H154.73V5a2.93,2.93,0,0,0-.8-2.15,2.92,2.92,0,0,0-2.14-.79H141.64a3,3,0,0,0-2.08.79A2.81,2.81,0,0,0,138.71,5v20.3H129a2.85,2.85,0,0,0-2.08.86,2.81,2.81,0,0,0-.85,2.07v7.22A2.92,2.92,0,0,0,129,38.41h9.67V66.05q0,11.25,5.62,17.06t16.76,5.81h10a2.77,2.77,0,0,0,2.14-.85,3,3,0,0,0,.79-2.08V78.28a2.73,2.73,0,0,0-2.93-2.93Z" style="fill:#fff"/><path d="M219.19,3.3H189.34a2.79,2.79,0,0,0-2.14.86,3.09,3.09,0,0,0-.79,2.2V86a2.9,2.9,0,0,0,2.93,2.93H219.8q18.22,0,27-8.13T256,55.53q.24-7.1.24-9.42T256,36.57Q255.28,3.3,219.19,3.3Zm19.45,51.86q-.25,10.53-4.77,15t-14.68,4.52H203.65V17.49h14.93q10.28,0,15,4.71t5,14.74q.24,7.1.24,9.05T238.64,55.16Z" style="fill:#fff"/><path d="M313.49,87.21a28.9,28.9,0,0,0,10-6.91c2.32-2.65,3.49-5,3.49-6.91a2,2,0,0,0-.8-1.71,3,3,0,0,0-1.89-.62H313.49a5.1,5.1,0,0,0-2.08.31A6.75,6.75,0,0,0,309.7,73a13.82,13.82,0,0,1-11.38,5.63,11.52,11.52,0,0,1-9.6-4.47A19,19,0,0,1,285,62.87v-1H325.6a3,3,0,0,0,2.2-.85,2.85,2.85,0,0,0,.86-2.08V56.39q0-14.69-7.89-23.49t-22.45-8.8q-14.19,0-22.2,8.8t-8,24.1l.12,3.06q.5,14.43,8.51,22.26t21.71,7.83A36.1,36.1,0,0,0,313.49,87.21Zm-28.5-36q0-7.22,3.55-11.56a12,12,0,0,1,9.78-4.34,12.15,12.15,0,0,1,9.85,4.34q3.61,4.35,3.61,11.56v.24H285Z" style="fill:#fff"/><path d="M400.82,87.33l-.12-58.95a3,3,0,0,0-.85-2.2,2.87,2.87,0,0,0-2.09-.86h-10a3.07,3.07,0,0,0-2.15.86,2.87,2.87,0,0,0-.91,2.2v4.77a22.85,22.85,0,0,0-8.08-6.61,25.11,25.11,0,0,0-11.37-2.44q-12.6,0-19.08,7.95t-7,21l-.13,3.31.13,3.3q.48,13.34,6.91,21t19.14,7.7q12.11,0,18.71-7.82v8.31q0,8.07-3.42,11.32t-10.77,3.24c-3.75,0-6.52-.76-8.31-2.26a14.33,14.33,0,0,1-4-5.45,3.88,3.88,0,0,0-1.28-2,3.32,3.32,0,0,0-1.9-.55H343.33a2.92,2.92,0,0,0-2.07.8,2.6,2.6,0,0,0-.86,2q0,3.3,2.81,8t9.54,8.25q6.74,3.61,17.62,3.61,15.28,0,22.87-7.46T400.82,87.33Zm-16.88-27a18.81,18.81,0,0,1-3.79,10.76q-3.42,4.41-10.27,4.41-14.07,0-14.07-19.08l.12-2.94q.74-16.14,13.95-16.14,6.84,0,10.27,4.4a18.83,18.83,0,0,1,3.79,10.76c.08.66.12,2,.12,3.92S384,59.65,383.94,60.3Z" style="fill:#fff"/><path d="M457.88,39.26a2.94,2.94,0,0,0,.8-2.08V28.25a2.92,2.92,0,0,0-.8-2.14,2.88,2.88,0,0,0-2.14-.79H450.6q-11.49,0-17.61,8.07v-5a2.94,2.94,0,0,0-3.06-3.06h-10a2.85,2.85,0,0,0-2.08.86,3,3,0,0,0-.85,2.2V86a2.9,2.9,0,0,0,2.93,2.93h10.89A2.9,2.9,0,0,0,433.72,86V52.47q0-5.74,3.31-9t9.05-3.3h9.66A2.78,2.78,0,0,0,457.88,39.26Z" style="fill:#fff"/><path d="M494.76,24.1q-14.19,0-22.2,8.8t-8,24.1l.12,3.06q.49,14.43,8.5,22.26t21.71,7.83a36.15,36.15,0,0,0,15.05-2.94,29,29,0,0,0,10-6.91q3.48-4,3.48-6.91a2,2,0,0,0-.79-1.71,3,3,0,0,0-1.9-.62H509.93a5.06,5.06,0,0,0-2.08.31A6.92,6.92,0,0,0,506.13,73a13.78,13.78,0,0,1-11.37,5.63,11.49,11.49,0,0,1-9.6-4.47,18.88,18.88,0,0,1-3.73-11.31v-1H522a3,3,0,0,0,2.2-.85,2.84,2.84,0,0,0,.85-2.08V56.39q0-14.69-7.88-23.49T494.76,24.1Zm13.45,27.39H481.43v-.24q0-7.22,3.55-11.56a11.94,11.94,0,0,1,9.78-4.34,12.15,12.15,0,0,1,9.85,4.34q3.6,4.35,3.6,11.56Z" style="fill:#fff"/><path d="M587.9,32.9q-7.89-8.8-22.44-8.8-14.19,0-22.2,8.8t-8,24.1l.13,3.06q.48,14.43,8.5,22.26t21.71,7.83a36.1,36.1,0,0,0,15-2.94,28.9,28.9,0,0,0,10-6.91q3.49-4,3.49-6.91a2,2,0,0,0-.8-1.71,3,3,0,0,0-1.89-.62H580.62a5.1,5.1,0,0,0-2.08.31A6.75,6.75,0,0,0,576.83,73a13.8,13.8,0,0,1-11.37,5.63,11.52,11.52,0,0,1-9.61-4.47,19,19,0,0,1-3.73-11.31v-1h40.61a3,3,0,0,0,2.2-.85,2.85,2.85,0,0,0,.86-2.08V56.39Q595.79,41.71,587.9,32.9Zm-9,18.59H552.12v-.24q0-7.22,3.55-11.56a12,12,0,0,1,9.79-4.34,12.11,12.11,0,0,1,9.84,4.34q3.62,4.35,3.61,11.56Z" style="fill:#fff"/><path d="M51.24,115.32a2.91,2.91,0,0,0-2.89-2H39.53a2.89,2.89,0,0,0-2.88,2L17.41,167l-.16.72a1.64,1.64,0,0,0,1.68,1.68h7.14a2.31,2.31,0,0,0,2.32-1.52l3.69-9.7H55.81l3.68,9.7a2.33,2.33,0,0,0,2.33,1.52H69a1.69,1.69,0,0,0,1.17-.48,1.59,1.59,0,0,0,.52-1.2l-.16-.72ZM34.88,148.91l9.06-24.69L53,148.91Z" style="fill:#fff"/><path d="M152.64,149.87h-7.77a2,2,0,0,0-1.44.45,3.31,3.31,0,0,0-.81,1.56q-1.2,5-4.21,7a13.55,13.55,0,0,1-7.81,2.05q-11.46,0-11.95-12.83-.08-2.33-.08-6.81c0-3,0-5.21.08-6.66q.5-12.82,11.95-12.82a13.58,13.58,0,0,1,7.85,2q3,2,4.17,7a3.36,3.36,0,0,0,.81,1.56,2.08,2.08,0,0,0,1.44.44h7.77a1.79,1.79,0,0,0,1.17-.44,1.39,1.39,0,0,0,.52-1.08v-.16a17.42,17.42,0,0,0-3.09-9.54A19.7,19.7,0,0,0,143,115a29.34,29.34,0,0,0-12.42-2.44q-11,0-17.08,5.73t-6.49,16c0,1.5-.08,3.9-.08,7.22s0,5.61.08,7q.41,10.43,6.45,16.07t17.12,5.66A29.34,29.34,0,0,0,143,167.79a19.76,19.76,0,0,0,8.22-6.69,17.44,17.44,0,0,0,3.09-9.54,1.37,1.37,0,0,0-.44-1.2A1.76,1.76,0,0,0,152.64,149.87Z" style="fill:#fff"/><path d="M224.15,115.32a2.9,2.9,0,0,0-2.89-2h-8.81a2.9,2.9,0,0,0-2.89,2L190.32,167l-.16.72a1.64,1.64,0,0,0,1.68,1.68H199a2.31,2.31,0,0,0,2.32-1.52l3.69-9.7h23.73l3.69,9.7a2.31,2.31,0,0,0,2.32,1.52h7.14A1.69,1.69,0,0,0,243,169a1.55,1.55,0,0,0,.52-1.2l-.16-.72ZM207.8,148.91l9.06-24.69,9,24.69Z" style="fill:#fff"/><path d="M304.47,113.32H284.91a1.84,1.84,0,0,0-1.4.56,2,2,0,0,0-.52,1.44v52.19a1.85,1.85,0,0,0,.56,1.36,1.83,1.83,0,0,0,1.36.56h20q11.94,0,17.67-5.33t6.05-16.55q.16-4.65.17-6.17t-.17-6.26Q328.12,113.33,304.47,113.32Zm12.75,34q-.17,6.9-3.13,9.86t-9.62,3H294.29V122.62h9.78q6.74,0,9.86,3.08t3.29,9.66q.16,4.65.16,5.94T317.22,147.31Z" style="fill:#fff"/><path d="M504,113.32h-6.41a2.7,2.7,0,0,0-2.41,1.52l-15.47,28.7-15.47-28.7a2.69,2.69,0,0,0-2.4-1.52h-6.5a1.83,1.83,0,0,0-1.4.56,2,2,0,0,0-.52,1.44v52.19a1.85,1.85,0,0,0,.56,1.36,1.83,1.83,0,0,0,1.36.56h6.9a1.81,1.81,0,0,0,1.4-.56,1.9,1.9,0,0,0,.52-1.36V133L475.3,154.2A3.11,3.11,0,0,0,478,156h3.37A2.82,2.82,0,0,0,484,154.2L495.18,133v34.47a1.91,1.91,0,0,0,1.93,1.92H504a2,2,0,0,0,1.45-.52,1.82,1.82,0,0,0,.56-1.4V115.32a2,2,0,0,0-.56-1.44A2,2,0,0,0,504,113.32Z" style="fill:#fff"/><path d="M594.11,113.32h-7.22a2.29,2.29,0,0,0-1.48.48,3.69,3.69,0,0,0-.92,1l-13.55,23.25-13.47-23.25a2.87,2.87,0,0,0-2.48-1.52h-7.22a1.67,1.67,0,0,0-1.16.48,1.55,1.55,0,0,0-.52,1.2,4.35,4.35,0,0,0,.24.88l19,33.59v18a1.85,1.85,0,0,0,.56,1.36,1.83,1.83,0,0,0,1.36.56h7.38a2,2,0,0,0,1.44-.52,1.82,1.82,0,0,0,.56-1.4v-18l18.92-33.59a1.66,1.66,0,0,0,.24-.88,1.64,1.64,0,0,0-1.68-1.68Z" style="fill:#fff"/><path d="M409.33,160.14H382.39V145.63h13.37a2,2,0,0,0,1.44-.53,1.78,1.78,0,0,0,.56-1.4v-5a1.92,1.92,0,0,0-2-2H382.39v-10.4h0a1.83,1.83,0,0,0-1.8-1.61h-7.33a1.83,1.83,0,0,0-1.83,1.83v41a1.91,1.91,0,0,0,1.92,1.92h36a2,2,0,0,0,1.44-.52,1.78,1.78,0,0,0,.56-1.4v-5.45a1.78,1.78,0,0,0-.56-1.4A2,2,0,0,0,409.33,160.14Z" style="fill:#fff"/><rect x="396.86" y="113.32" width="13.83" height="9.3" rx="1.83" style="fill:#fff"/></g></g></svg>